<?xml version="1.0" encoding="utf-8"?>
<!-- Generator: Adobe Illustrator 15.0.0, SVG Export Plug-In  -->
<!DOCTYPE svg PUBLIC "-//W3C//DTD SVG 1.1//EN" "http://www.w3.org/Graphics/SVG/1.1/DTD/svg11.dtd" [
	<!ENTITY ns_flows "http://ns.adobe.com/Flows/1.0/">
]>
<svg version="1.1"
	 xmlns="http://www.w3.org/2000/svg" xmlns:xlink="http://www.w3.org/1999/xlink" xmlns:a="http://ns.adobe.com/AdobeSVGViewerExtensions/3.0/"
	 x="0px" y="0px" width="154px" height="66px" viewBox="-8.962 -15.881 154 66" enable-background="new -8.962 -15.881 154 66"
	 xml:space="preserve">
<defs>
</defs>
<path d="M14.977,31.102v-3.445h-0.094C13.945,29,13,29.973,12.047,30.574c-0.953,0.601-2.133,0.902-3.539,0.902
	c-2.359,0-4.368-1.016-6.023-3.047C0.828,26.399,0,23.93,0,21.023c0-2.875,0.882-5.34,2.648-7.395
	c1.766-2.054,3.859-3.082,6.281-3.082c1.156,0,2.195,0.258,3.117,0.773c0.922,0.516,1.898,1.336,2.93,2.461v-2.789h6v20.109H14.977z
	 M10.57,16.547c-1.188,0-2.18,0.473-2.977,1.418c-0.797,0.946-1.195,2.137-1.195,3.574c0,1.344,0.378,2.426,1.137,3.246
	c0.758,0.82,1.754,1.23,2.988,1.23c1.187,0,2.203-0.472,3.047-1.418c0.844-0.945,1.266-2.089,1.266-3.434
	c0-1.25-0.422-2.332-1.266-3.246S11.727,16.547,10.57,16.547z"/>
<path d="M28.271,10.992v2.93h0.094c0.875-1.172,1.785-2.027,2.73-2.566c0.945-0.539,2.082-0.809,3.41-0.809
	c2.406,0,4.457,1.055,6.152,3.164c1.695,2.109,2.543,4.672,2.543,7.688c0,2.766-0.825,5.137-2.473,7.113
	c-1.649,1.977-3.606,2.965-5.871,2.965c-1.391,0-2.555-0.29-3.492-0.867s-1.907-1.5-2.906-2.766h-0.094v12.141h-6.094V10.992H28.271
	z M36.919,21.352c0-1.313-0.422-2.441-1.266-3.387c-0.844-0.945-1.852-1.418-3.023-1.418c-1.157,0-2.141,0.465-2.953,1.395
	c-0.813,0.93-1.219,2.066-1.219,3.41c0,1.297,0.425,2.406,1.277,3.328c0.851,0.922,1.887,1.383,3.105,1.383
	c1.187,0,2.164-0.437,2.93-1.313C36.536,23.875,36.919,22.743,36.919,21.352z"/>
<path d="M53.771,0.328h5.139l12.537,30.773h-6.675l-2.463-6.047h-11.81l-2.413,6.047h-6.64L53.771,0.328z M56.341,10.406
	l-3.618,9.07h7.313L56.341,10.406z"/>
<path d="M71.241,0.328h8.965c3.745,0,6.305,0.781,7.678,2.342c1.374,1.561,2.06,3.388,2.06,5.48c0,1.327-0.25,2.447-0.75,3.36
	c-0.5,0.914-1.305,1.838-2.414,2.775c2.125,0.735,3.629,1.818,4.512,3.249c0.882,1.431,1.324,2.959,1.324,4.585
	c0,2.83-0.968,5.035-2.903,6.614s-4.659,2.369-8.17,2.369H71.241V0.328z M77.874,5.484v6.75h1.517c1.121,0,2.062-0.357,2.824-1.07
	c0.762-0.714,1.144-1.596,1.144-2.646c0-0.847-0.374-1.564-1.12-2.152c-0.747-0.588-1.681-0.882-2.801-0.882H77.874z M77.874,17.461
	v8.484h2.376c3.634,0,5.452-1.332,5.452-3.996c0-1.441-0.443-2.55-1.328-3.325c-0.886-0.776-2.151-1.164-3.797-1.164H77.874z"/>
<path d="M92.081,0.328h6.586v24.141h9.07v6.633H92.081V0.328z"/>
<path d="M106.617,15.703c0-4.547,1.503-8.3,4.512-11.262C114.137,1.48,117.703,0,121.828,0c4.562,0,8.335,1.488,11.32,4.465
	c2.984,2.977,4.477,6.738,4.477,11.285c0,4.516-1.477,8.266-4.43,11.25c-2.953,2.985-6.672,4.477-11.156,4.477
	c-4.485,0-8.176-1.484-11.074-4.453C108.066,24.055,106.617,20.282,106.617,15.703z M122.133,6.141
	c-2.578-0.047-4.656,0.844-6.234,2.672c-1.579,1.828-2.367,4.188-2.367,7.078c0,2.734,0.805,5,2.414,6.797
	c1.609,1.797,3.641,2.695,6.094,2.695c2.578,0,4.66-0.887,6.246-2.66c1.585-1.773,2.379-4.113,2.379-7.02
	c0-2.859-0.777-5.156-2.332-6.891C126.777,7.078,124.711,6.188,122.133,6.141z"/>
</svg>
